inDegrees=no
num_controls=7
num_derivatives=13
num_iterations=85
num_multipliers=7
num_parameters=0
num_slacks=7
num_states=26
objective=0.444962
objective_accelerations=0.056717
objective_balance=0.003320
objective_effort=0.022591
objective_height=0.356842
objective_ligament=0.005492
solver_duration=1214.193589
status=Solve_Succeeded
success=true
DataType=double
version=3
OpenSimVersion=4.5
endheader
time	/jointset/ground_pelvis/pelvis_tilt/value	/jointset/ground_pelvis/pelvis_tx/value	/jointset/ground_pelvis/pelvis_ty/value	/jointset/hip_l/hip_flexion_l/value	/jointset/hip_l/hip_adduction_l/value	/jointset/hip_l/hip_rotation_l/value	/jointset/back/lumbar_extension/value	/jointset/patellofemoral_l/patellar_flexion_l/value	/jointset/knee_l/knee_flexion_l/value	/jointset/knee_l/knee_adduction_l/value	/jointset/knee_l/knee_rotation_l/value	/jointset/ankle_l/ankle_angle_l/value	/jointset/subtalar_l/subtalar_angle_l/value	/jointset/ground_pelvis/pelvis_tilt/speed	/jointset/ground_pelvis/pelvis_tx/speed	/jointset/ground_pelvis/pelvis_ty/speed	/jointset/hip_l/hip_flexion_l/speed	/jointset/hip_l/hip_adduction_l/speed	/jointset/hip_l/hip_rotation_l/speed	/jointset/back/lumbar_extension/speed	/jointset/patellofemoral_l/patellar_flexion_l/speed	/jointset/knee_l/knee_flexion_l/speed	/jointset/knee_l/knee_adduction_l/speed	/jointset/knee_l/knee_rotation_l/speed	/jointset/ankle_l/ankle_angle_l/speed	/jointset/subtalar_l/subtalar_angle_l/speed	/forceset/tau_hip_flexion_l	/forceset/tau_hip_adduction_l	/forceset/tau_hip_rotation_l	/forceset/tau_knee_flexion_l	/forceset/tau_ankle_angle_l	/forceset/tau_subtalar_angle_l	/forceset/tau_lumbar_extension	lambda_cid13_p0	lambda_cid13_p1	lambda_cid13_p2	lambda_cid13_p3	lambda_cid13_p4	lambda_cid13_p5	lambda_cid14_p0	/jointset/ground_pelvis/pelvis_tilt/accel	/jointset/ground_pelvis/pelvis_tx/accel	/jointset/ground_pelvis/pelvis_ty/accel	/jointset/hip_l/hip_flexion_l/accel	/jointset/hip_l/hip_adduction_l/accel	/jointset/hip_l/hip_rotation_l/accel	/jointset/back/lumbar_extension/accel	/jointset/patellofemoral_l/patellar_flexion_l/accel	/jointset/knee_l/knee_flexion_l/accel	/jointset/knee_l/knee_adduction_l/accel	/jointset/knee_l/knee_rotation_l/accel	/jointset/ankle_l/ankle_angle_l/accel	/jointset/subtalar_l/subtalar_angle_l/accel	gamma_cid13_p0	gamma_cid13_p1	gamma_cid13_p2	gamma_cid13_p3	gamma_cid13_p4	gamma_cid13_p5	gamma_cid14_p0
0	-0.03836404380283615	0.06840024361030914	0.8959041047677182	0.1955287580552426	-0.3224917760147921	-0.4736607461901978	-0.1379045077516729	0.07015288079084246	0.07015288079084844	-0.1745322512324116	-0.1086138326626889	-0.06701059314715049	0.003187523555333605	0	0	0	0	0	0	0	0	0	0	0	0	0	0.1063008211319841	-0.1028732320749698	-0.02897217348346572	-0.2379507683319522	0.1983117697656208	-0.01144935655386931	-0.05059642380616713	28.24250129826234	-2.377133330649862	2.789616129347883	-3.69505541314215	-515.6509135123712	-82.81719408147438	-39.67455296311341	-4.283663960215087	-1.728898520774601	-0.956191483907476	12.31826957809833	-2.065609342913299	3.301320388639216	-2.764282151144977	10.36408226802286	10.36408226802222	0.7620746447827307	-0.9002393285283167	2.572645054408808	-0.8671323271591891	-1.491088573908718e-08	1.36036508765894e-07	5.145397405173536e-08	2.08303045970494e-08	-3.567662029267526e-08	-1.974926111357015e-09	6.094373827753201e-09
0.01	-0.03856835557010718	0.06831527164905855	0.8958576256439759	0.1961243374466781	-0.3225940641953399	-0.4734943589493025	-0.1380488410414992	0.07065707487281887	0.070657074872812	-0.1744985713082047	-0.108652287654012	-0.06688628922474794	0.003142861815527673	-0.040685533274023	-0.01688814536920523	-0.009273136383194111	0.1185788491676981	-0.02041804542691366	0.033186230942199	-0.02864322301163359	0.1004608358768308	0.1004608358768356	0.006617336885102716	-0.007624256858176936	0.02481235162015393	-0.008915975662553064	0.1033744879026225	-0.1030677557846495	-0.02854975302807031	-0.2355020350555441	0.1952423013775772	-0.009244084678288123	-0.04794347713832713	27.32664502421687	-3.153035624070672	2.888771741006777	-3.916132387754915	-516.3212984347134	-84.23107314316645	-39.68482186338015	-3.934483043913914	-1.652831346431131	-0.9094785961233519	11.54712938975511	-2.023989077778904	3.31359046552366	-2.88082713316134	9.830385951198783	9.830385951199672	0.5937944602521603	-0.6835081464711231	2.428267614883745	-0.90140162141144	-6.47231351556957e-08	1.577420494937773e-07	1.821945223414482e-07	5.272307489701422e-08	-2.52403616338452e-07	-8.810110276257982e-08	-8.158497385049242e-09
0.02	-0.03917421967670521	0.06806460647382889	0.8957190943802814	0.1978895926905268	-0.3228993502171948	-0.4729988461952813	-0.1384729035128398	0.07215453765427374	0.07215453765427471	-0.1744022717649351	-0.1087649830703648	-0.06651531430633044	0.003009526031974458	-0.08031046786474409	-0.03313864279581545	-0.01841042799041095	0.2339351704813979	-0.04059956826177237	0.06582510262493041	-0.05594583630282758	0.1986537399010803	0.1986537399010801	0.01252392376531213	-0.01484808499669887	0.04933419920290623	-0.01773480874943887	0.1004481546732964	-0.1032622794943322	-0.02812733257242361	-0.2330533017792179	0.1921728329894997	-0.007038812802731197	-0.04529053047042272	26.47492227039761	-3.94198515167008	2.992085063009949	-4.308488606921898	-516.0607477563447	-85.48194764451425	-39.71510063782438	-4.071544223554837	-1.60136893225547	-0.9290225287120462	11.67376400729851	-2.01830482450258	3.191848536745687	-2.496160207057066	9.910495897506573	9.910495897503971	0.6199246438034658	-0.8201535845973125	2.514544246928547	-0.8477038120259929	-1.145353845723042e-07	1.794475902216605e-07	3.12935070631161e-07	8.461584519697904e-08	-4.691306123842287e-07	-1.742272794138026e-07	-2.241136859785169e-08
0.03	-0.04017149711788302	0.06765448759578734	0.8954896700168418	0.2007932314248674	-0.3234043020320418	-0.4721805541677828	-0.1391625019779067	0.07462223268932149	0.0746222326893362	-0.1742489122321327	-0.1089485993481105	-0.06590086390556657	0.00278936503723872	-0.1189555643676152	-0.04879005949274638	-0.0274631131590009	0.3462472933744872	-0.06025492029840884	0.09768284236262088	-0.08173316221907391	0.294411836779465	0.2944118367794519	0.01816015828605986	-0.02182830205577709	0.07345759746582831	-0.02620520933449912	0.09623016181392172	-0.1006454995675146	-0.02743999620562567	-0.2292220408155445	0.1875979536365532	-0.006138046626538674	-0.04173562319674697	25.06632497682968	-4.145800472274635	3.092253538592291	-4.005358930394586	-516.0840550033381	-85.40062602761462	-39.7642141929276	-3.732587419032991	-1.532749988137742	-0.8917864819616904	10.92812288651552	-1.918825348233076	3.16012605501202	-2.583914610251863	9.337456573422946	9.337456573422623	0.5373669236286721	-0.6298865439396082	2.346493586544809	-0.8329447468543126	-1.429365257814467e-07	1.95288055557783e-07	3.586497421984789e-07	1.144889975278133e-07	-6.451323008344462e-07	-2.075031810441609e-07	-2.517669309795622e-08
0.04	-0.04154954453516977	0.06709071016083179	0.89517003980751	0.204803628679377	-0.324101742358249	-0.4710482068703534	-0.1401027528674048	0.0780333066912378	0.07803330669123906	-0.1740388115405772	-0.1092006039519134	-0.06504812832805869	0.002487252723630587	-0.156464463085649	-0.06387035417860788	-0.03645159716885026	0.4552868745156568	-0.07909727053459718	0.1286361566095618	-0.1060763211890668	0.3873295332745853	0.3873295332745677	0.02387215550352386	-0.02852575020991464	0.09699123455157757	-0.03412507252389679	0.09201216895448382	-0.09802871964072192	-0.02675265983889648	-0.2253907798519544	0.1830230742835523	-0.005237280450401453	-0.03818071592305876	23.7164452748247	-4.360796786581577	3.195233436168209	-3.864359829288	-515.2581729747133	-85.16597626559181	-39.83058795265038	-3.844304666587459	-1.487144530041482	-0.9161822969639352	11.01925565691449	-1.855704464413066	3.010963438595774	-2.207326817806397	9.342415820853653	9.342415820852757	0.6350771831464902	-0.7635998036091656	2.396592011494065	-0.737596332893541	-1.708962008419817e-07	2.110075915043846e-07	4.026113029055411e-07	1.443205082510367e-07	-8.202942922208376e-07	-2.396893862823364e-07	-2.770516096480925e-08
0.05	-0.04329754445975403	0.0663787927534677	0.8947605396729479	0.2098895631493538	-0.3249837212313741	-0.4696109558271644	-0.1412785532707649	0.08236052742730073	0.08236052742729927	-0.1737713309879694	-0.1095187328547775	-0.06396280907011136	0.002108591942116482	-0.1929270213162809	-0.07843360949344733	-0.04545774153476731	0.5613691896716936	-0.0971770089734935	0.1586882460455571	-0.1288518538940426	0.4776642208348928	0.4776642208348538	0.02959378039815679	-0.03504097424982745	0.119958835563034	-0.04154066769809799	0.08665991535249466	-0.09294796014925802	-0.02580953448842273	-0.2202343147186503	0.1769830452216098	-0.005592915231827382	-0.03388744304744368	21.8425998869932	-4.010424062475736	3.290351136619795	-3.042414786607863	-514.4246058803594	-83.63579755755018	-39.91223612706589	-3.515967533487841	-1.428959256642117	-0.8943927494034877	10.32307043953309	-1.76594887811769	2.983406541263243	-2.277880658573573	8.811441819656551	8.811441819654133	0.5362617378586678	-0.586573694607407	2.229772786189176	-0.7336567670102967	-1.893305661316725e-07	2.129664160691861e-07	4.430970981442944e-07	1.608715340537452e-07	-9.250281835501357e-07	-2.678418761739837e-07	-3.122032470857931e-08
